<svg id="Capa_1" enable-background="new 0 0 511.999 511.999" height="512" viewBox="0 0 511.999 511.999" width="512" xmlns="http://www.w3.org/2000/svg"><g><g><path d="m255.999 45.999c-66.557 0-120 54.03-120 120 0 66.27 53.73 120 120 120 .62 0 1.23 0 1.85-.02 65.408-.982 118.15-54.328 118.15-119.98 0-66.398-53.881-120-120-120z" fill="#b3f1ff"/><path d="m468.919 43.079c.48-.18 15.35-5.83 26.5 5.32 9.42 9.42 8.31 23.51-.69 32.51-12.46 12.46-33.65 7.76-68.25 4.61-3.15-34.6-7.85-55.79 4.61-68.25 9-9 23.09-10.11 32.51-.69 11.15 11.15 5.5 26.02 5.32 26.5z" fill="#f5737f"/><path d="m375.999 165.999c0 14.83-2.69 29.03-7.61 42.14-3.02-9.17-6.6-17.62-10.51-22.14-11.45-13.19-31.79-6.71-40.01-20-8.21-13.29 8.22-26.71 0-40-8.21-13.29-39.99-2.54-39.99-20s39.99-20 39.99-20h27.56c19.02 21.23 30.57 49.26 30.57 80z" fill="#d8ec84"/><path d="m257.869 205.999c8.97 6.46 20.01 8.95 20.01 20s-15.78 9.8-20.01 20c-4.15 10.04-.13 39.05-.01 39.98h-.01c-.99-1.26-35.51-45.24-39.97-59.98-4.53-14.95 0-40 0-40s31.03 13.54 39.99 20z" fill="#d8ec84"/><path d="m413.459 266.019c-3.28 11.71-6.16 25.37-9.21 46.17-3.735 25.415-14.952 42.405-11.4 35.87 7.45-14.5 1.96-32.36-12.46-40.12-14.59-7.88-32.79-2.4-40.63 12.19-4.81 8.93-14.01 17.79-27.24 30.43-36.11 34.54-56.52 88.47-56.52 138.44 0-49.97-20.41-103.9-56.52-138.44-13.23-12.64-22.43-21.5-27.24-30.43-7.84-14.59-26.04-20.07-40.63-12.19-13.824 7.439-20.649 25.054-11.71 41.5-4.805-7.916-9.871-21.744-12.15-37.25-3.05-20.8-5.93-34.46-9.21-46.17-6.62-23.63-28-40.02-52.54-40.02v60c0 83.8 37.46 119.63 70.49 151.25 18.74 17.93 36.38 41.03 44.58 64.75h189.86c8.2-23.72 25.84-46.82 44.58-64.75 33.03-31.62 70.49-67.45 70.49-151.25v-60c-24.54 0-45.92 16.39-52.54 40.02z" fill="#fce8d0"/><path d="m237.879 85.999c6.68 16.14-21.77 29.1-20 40 1.76 10.9 18.23 9.1 20 20 1.76 10.9-20 40-20 40s-28.74-36.04-55-45c-7.34-2.5-15.46-3.21-23.59-2.99 6.39-26.78 21.77-50.07 42.76-66.52 14.96 13.3 49.81-.01 55.83 14.51z" fill="#d8ec84"/><path d="m43.079 43.079c-.18-.48-5.83-15.35 5.32-26.5 9.42-9.42 23.51-8.31 32.51.69 12.46 12.46 7.76 33.65 4.61 68.25-34.6 3.15-55.79 7.85-68.25-4.61-9-9-10.11-23.09-.69-32.51 11.15-11.15 26.02-5.5 26.5-5.32z" fill="#f5737f"/></g><g><path d="m45.999 215.999c-5.523 0-10 4.477-10 10v60c0 39.188 7.91 71.952 24.182 100.163 14.2 24.62 32.878 42.5 49.396 58.313 20.26 19.385 35.191 40.975 42.042 60.792 1.393 4.03 5.188 6.733 9.451 6.733h189.86c4.264 0 8.058-2.703 9.451-6.733 6.851-19.817 21.781-41.406 42.077-60.825 2.739-2.622 5.509-5.273 8.285-7.978 3.956-3.854 4.039-10.185.185-14.141s-10.185-4.04-14.141-.185c-2.734 2.663-5.461 5.273-8.19 7.886-12.074 11.552-33.083 34.286-44.558 61.976h-78.039v-3c0-49.41 20.474-99.688 53.428-131.209 13.642-13.034 23.498-22.45 29.14-32.927 5.164-9.61 17.225-13.441 27.083-8.118 9.426 5.073 13.159 16.876 8.44 26.447-8.803 16.571-23.149 30.233-37.026 43.513-3.99 3.818-4.129 10.148-.311 14.139 3.818 3.99 10.148 4.129 14.139.311 28.867-27.624 47.414-47.796 53.25-87.514 2.764-18.848 5.522-32.703 8.945-44.923 4.469-15.952 17.337-27.919 32.911-31.563v48.846c0 25.295-3.46 47.111-10.58 66.695-1.887 5.191.792 10.928 5.982 12.815 5.213 1.893 10.935-.812 12.815-5.982 7.929-21.812 11.783-45.863 11.783-73.528v-60c0-5.523-4.477-10-10-10-28.798 0-54.363 19.459-62.169 47.323-3.402 12.147-6.166 25.642-8.86 43.315-2.802-2.934-6.088-5.484-9.828-7.497-19.456-10.508-43.718-3.234-54.187 16.247-4.136 7.68-13.495 16.621-25.348 27.945-22.359 21.387-39.554 50.416-49.608 82.176-10.054-31.76-27.25-60.79-49.612-82.18-11.849-11.32-21.208-20.262-25.339-27.934-10.478-19.498-34.744-26.757-54.178-16.262-3.747 2.016-7.042 4.557-9.843 7.485-2.694-17.668-5.458-31.153-8.859-43.297-7.806-27.865-33.371-47.324-62.169-47.324zm105.106 185.155c3.99 3.818 10.32 3.679 14.139-.311s3.68-10.32-.311-14.139c-14.81-14.173-27.605-26.418-36.694-42.839-.011-.021-.022-.042-.034-.063-5.194-9.931-1.631-21.798 8.155-27.065 9.711-5.245 21.831-1.624 27.074 8.133 5.638 10.469 15.494 19.885 29.132 32.915 32.958 31.525 53.432 81.803 53.432 131.213v3h-78.038c-11.475-27.689-32.486-50.426-44.592-62.008-33.121-31.707-67.369-64.493-67.369-143.992v-48.846c15.574 3.644 28.442 15.612 32.911 31.563 3.423 12.22 6.182 26.075 8.946 44.927 5.905 40.19 24.551 60.049 53.249 87.512z"/><path d="m255.999 295.999c71.477 0 130-57.888 130-130 0-72.393-58.888-130-130-130-72.212 0-130 58.677-130 130 0 71.682 58.318 130 130 130zm-7.372-53.82c-1.273 3.081-2.005 7.119-2.362 11.602-9.082-12.771-17.156-25.194-18.816-30.682-1.816-5.994-1.814-14.809-1.271-22.386 26.2 12.165 23.362 12.38 33.835 18.376 6.453 3.693 7.706 4.829 7.848 6.576-.849.662-2.756 1.648-4.079 2.332-4.982 2.577-11.805 6.106-15.155 14.182zm117.372-76.18c0 4.437-.285 8.835-.805 13.19-7.745-8.737-17.815-11.002-25.926-12.816-6.976-1.561-11.014-2.592-12.892-5.629-1.564-2.533-.917-5.394 1.053-11.801 2.297-7.469 5.443-17.697-1.053-28.199-6.269-10.148-18.311-11.625-27.986-12.81-3.271-.401-8.56-1.049-10.509-2.011.227-3.091 13.985-8.794 30.323-9.923h22.633c16.255 19.663 25.162 44.347 25.162 69.999zm-110-110c22.791 0 44.847 7.115 63.206 20h-1.336c-.211 0-.423.007-.634.02-8.242.523-49.356 4.429-49.356 29.98 0 8.248 4.193 14.691 11.807 18.144 4.981 2.259 10.721 2.962 16.272 3.643 4.557.558 12.183 1.493 13.407 3.474 1.567 2.533.92 5.396-1.051 11.804-2.296 7.465-5.44 17.688 1.051 28.196 6.4 10.348 17.011 12.723 25.537 14.63 6.42 1.437 11.965 2.677 15.415 6.652 1.06 1.225 3.77 5.081 7.416 15.348-15.621 38.024-50.431 63.708-90.995 67.585-1.098-12.024-1.007-22.315.369-25.644.546-1.317 3.249-2.714 5.863-4.066 5.576-2.884 14.91-7.71 14.91-19.765 0-14.005-10.363-19.937-17.931-24.268-9.877-5.652-8.474-6.804-36.988-19.92 6.459-9.837 16.591-26.256 14.789-37.415-2.177-13.407-15.343-16.573-19.54-19.63 1.2-1.863 4.069-4.907 6.08-7.041 7.621-8.086 19.139-20.308 12.827-35.556-5.605-13.521-20.955-13.718-34.498-13.892-2.257-.029-4.589-.059-6.888-.149 15.42-7.966 32.48-12.13 50.268-12.13zm-73.081 27.823c9.021 4.171 19.728 4.327 29.444 4.452 5.335.069 14.193.183 16.338 1.708 1.042 3.063-3.445 8.168-8.965 14.025-6.221 6.601-13.271 14.082-11.728 23.585 1.698 10.514 10.278 14.796 15.405 17.354 1.467.732 3.87 1.931 4.563 2.646-.188 3.42-4.827 12.559-10.987 22.137-11.114-12.068-31.22-31.488-50.884-38.198-4.173-1.422-8.667-2.398-13.537-2.968 6.206-17.101 16.668-32.548 30.351-44.741zm-35.463 64.338c4.588.327 8.625 1.086 12.195 2.303 17.27 5.893 38.154 27.348 47.653 38.449-1.202 8.655-2.969 26.867 1.005 39.983 3.088 10.205 16.944 30.27 28.056 45.346-51.318-9.285-90.364-54.289-90.364-108.242-.001-5.99.495-11.96 1.455-17.839z"/><path d="m71.554 96.957c4.732-.493 9.625-1.002 14.872-1.479 4.806-.438 8.615-4.246 9.052-9.052.478-5.246.987-10.139 1.479-14.872 2.867-27.541 4.939-47.44-8.977-61.356-13.058-13.058-33.458-13.885-46.652-.69-7.123 7.123-9.427 15.218-9.778 22.042-6.824.351-14.919 2.655-22.042 9.778-13.142 13.142-12.42 33.542.69 46.652 14.593 14.592 36.946 11.519 61.356 8.977zm-47.904-41.487c4.283-4.283 10.62-4.839 15.719-3.098.015.006.031.01.046.016.062.021.148.053.15.053.006.002.012.003.018.005 3.803 1.421 7.884.406 10.577-2.287 2.863-2.863 3.618-7.029 2.283-10.588-.002-.006-.003-.012-.005-.018-.004-.011-.012-.032-.021-.059-.016-.041-.027-.083-.043-.123-.466-1.363-2.958-9.667 3.097-15.722 5.803-5.803 13.633-4.046 18.368.69 6.86 6.859 5.824 20.197 3.227 45.143-.234 2.247-.471 4.529-.708 6.873-2.344.237-4.626.475-6.873.708-24.948 2.598-38.285 3.635-45.145-3.225-4.735-4.735-6.493-12.565-.69-18.368z"/><path d="m416.52 86.426c.438 4.806 4.246 8.615 9.052 9.052 5.246.478 10.139.987 14.872 1.479 25.307 2.634 46.984 5.395 61.356-8.977 13.084-13.085 13.858-33.484.69-46.653-7.123-7.123-15.218-9.427-22.042-9.778-.351-6.824-2.655-14.919-9.778-22.042-13.167-13.165-33.566-12.396-46.653.69-13.916 13.917-11.844 33.815-8.977 61.356.493 4.733 1.002 9.626 1.48 14.873zm21.64-62.086c4.735-4.736 12.566-6.493 18.368-.69 6.475 6.475 3.176 15.522 3.033 15.904 0 .001-.003.009-.004.011-.004.01-.005.021-.009.031-2.986 8.028 4.849 15.744 12.774 12.878.04-.015.082-.021.123-.036.382-.144 9.43-3.442 15.904 3.033 5.803 5.803 4.045 13.633-.69 18.368-6.86 6.86-20.196 5.824-45.143 3.227-2.247-.234-4.529-.471-6.873-.708-.237-2.344-.475-4.626-.708-6.873-2.599-24.948-3.635-38.286 3.225-45.145z"/><circle cx="433.999" cy="395.999" r="10"/></g></g></svg>